<?xml version="1.0" encoding="UTF-8"?>
<svg id="Layer_2" data-name="Layer 2" xmlns="http://www.w3.org/2000/svg" viewBox="0 0 800.84 796.18">
  <defs>
    <style>
      .cls-1 {
        fill: #ffc145;
      }

      .cls-2 {
        fill: #ff9c36;
      }
    </style>
  </defs>
  <g id="Layer_1-2" data-name="Layer 1">
    <g>
      <path class="cls-2" d="M470.94,796.18c-23.32,0-47.1-2.1-70.67-6.23-58.14-10.2-103.69-24.23-143.36-44.15-43.78-21.99-82.89-52.66-119.57-93.79-47.26-52.99-81.29-105.25-104.04-159.78C8.05,431.72-2.93,367.56.67,301.53c3.57-65.6,23.92-129.14,57.3-178.93C95.63,66.44,148.77,28.52,211.65,12.95,246.37,4.36,281.43,0,315.87,0c56.57,0,112.96,11.72,167.58,34.82,9.79,4.14,19.89,8.28,29.66,12.28,59.58,24.39,121.18,49.62,169.04,97.73,47.62,47.87,82.95,110.94,102.17,182.39,17.88,66.46,21.32,136.94,9.97,203.81-13.87,81.69-53.33,149.83-114.12,197.05-28.56,22.19-61.23,39.31-97.08,50.89-35.36,11.41-73.09,17.2-112.15,17.2ZM307.14,45.43c-61.94,0-118.82,15.24-169.06,45.3-32.61,19.51-51.04,63.04-67.3,101.45-2.7,6.37-5.25,12.39-7.82,18.2-16.42,37.11-19.65,70.87-19.44,110.15.66,122.91,39.13,216.54,117.61,286.25l.58.52.5.6c34.65,42.09,76.47,87.57,123.99,105.72,62.9,24.03,129.63,36.73,192.98,36.73,25.39,0,50.55-2.01,74.78-5.98,41.03-6.73,74.41-30.9,109.75-56.5,10.94-7.93,22.24-16.11,33.8-23.75,2.25-4.24,4.53-8.5,6.82-12.78,21.83-40.81,44.4-83.01,52.08-128.18,15.81-93.01-4.68-196.41-56.22-283.69-43.19-73.14-128.8-117.97-206.85-152.18-62.47-27.38-126.86-41.85-186.21-41.85Z"/>
      <path class="cls-1" d="M144.81,645.35C58.35,548.41,3.24,438.12,10.65,302.07,17.36,178.79,84.47,54.75,214.06,22.66,304.21.34,393.36,7.57,479.56,44.03c68.18,28.84,141.24,53.3,195.51,107.85,98.14,98.66,131.01,250.02,109.37,377.47-32.48,191.31-203.76,282.09-382.44,250.73-106-18.6-183.2-51.78-257.19-134.74ZM154.5,614.26c35.19,42.76,78.24,89.65,128.14,108.71,86.65,33.1,181.99,46.18,272.95,31.27,57.63-9.44,100.58-51.18,149.57-83.17,24.08-45.54,52.2-93.72,61.13-146.24,17.02-100.14-7.07-205.1-57.47-290.45-44.71-75.71-133.87-122.26-211.44-156.25-116.05-50.86-250.48-64.15-364.42,4.02-41.12,24.6-60.83,82.85-79.12,124.18-17.13,38.71-20.51,73.54-20.29,114.25.6,111.36,32.19,214.82,120.97,293.67Z"/>
      <path class="cls-2" d="M492.66,697.6c-14.92,0-29.95-1.61-44.7-4.78-102.27-22.02-180.72-62.33-239.83-123.25-57.67-59.42-97.85-139.55-122.85-244.98-12.19-51.39,1.61-127.9,45.16-161.88,53.15-41.47,118.44-62.49,194.07-62.49,48.27,0,98.95,8.58,150.64,25.51,49.18,16.11,82.8,30.46,109.09,56.17,26.73,26.13,44.85,62.72,67.11,117.1,27.82,67.93,42.42,125.74,44.65,176.75,3.02,69.15-17.41,124.88-60.71,165.65-37.94,35.72-89.93,56.2-142.64,56.2ZM323.46,149.98c-58.17,0-109.92,13.79-153.83,40.98-49.74,30.8-52.31,99.65-33.66,150.57,61.15,166.93,126.99,259.8,317.15,304.16,13.14,3.07,26.77,4.62,40.51,4.62,76.85,0,141.1-46.47,156.26-113,14.31-62.82-.31-137.79-41.16-211.1l-.75-1.36-.31-1.52c-15.87-78.11-71.91-133.36-157.8-155.58-46.26-11.97-87.6-17.78-126.41-17.78Z"/>
      <path class="cls-1" d="M450.07,683.04c-200.78-43.23-306.9-157.68-355.06-360.75-11.18-47.15,1.29-120.25,41.58-151.69,97.2-75.84,225.95-71.22,335.45-35.36,99.93,32.73,123.94,54.93,170.06,167.55,43.74,106.82,77.91,245.11-13.66,331.32-43.67,41.11-109.52,63.75-178.37,48.92ZM450.85,655.44c87.7,20.46,187.94-24.36,208.79-115.9,17.09-75.04-6.48-154.12-42.17-218.19-17.84-87.77-81.78-141.72-165.09-163.27-96.17-24.88-199.6-30.37-288.01,24.38-56.14,34.77-57.18,109.57-37.78,162.52,62.55,170.75,130.55,265.27,324.26,310.46Z"/>
      <path class="cls-2" d="M452.5,592.32c-49.07,0-102.44-23.38-154.36-67.6-42.15-35.91-81.92-84.63-109.11-133.67-21.67-39.09-24.11-83-6.68-120.45,13.4-28.81,36.07-52.47,65.55-68.43,27.87-15.09,61.25-23.06,96.53-23.06,29.16,0,58.31,5.29,86.65,15.71,29.81,10.97,57.24,27.13,81.52,48.04,27.77,23.91,50.14,58.29,64.68,99.41,13.95,39.43,19.2,81.93,14.79,119.67-6.19,53.01-30.78,93.18-69.23,113.11-22.1,11.46-45.77,17.27-70.34,17.27ZM350.24,228.34c-19.23,0-38.66,2.89-57.77,8.58-19.52,5.82-82.91,29.08-78.93,84.11,2.78,38.42,34.95,93.1,81.96,139.3,50.45,49.59,108.54,80.54,155.37,82.79,2.34.11,4.69.17,6.97.17,51.34,0,84.56-29.14,91.13-79.96,10.23-79.03-25.76-151.94-101.33-205.31-27.5-19.42-61.18-29.69-97.39-29.69Z"/>
      <path class="cls-1" d="M518.24,566.18c-122.51,63.5-261.53-73.66-320.46-179.97-21.32-38.45-21.37-79.12-6.36-111.39,47.33-101.75,207.44-116.69,314.66-24.38,88.65,76.33,112.35,263.8,12.16,315.74ZM450.39,553.11c63.26,3.05,101.24-32.45,108.5-88.49,11.44-88.4-32.57-163.27-105.48-214.76-46.48-32.82-107.06-39.43-163.79-22.52-43.13,12.86-89.75,43.3-86.05,94.41,6.17,85.32,138.01,226.12,246.82,231.36Z"/>
      <path class="cls-2" d="M428.76,501.56c-43.72,0-89-28.51-119.28-52.43-34.52-27.26-57.22-68.05-57.85-103.91-.45-25.88,10.12-48.72,30.58-66.07,20.08-17.03,43.84-25.67,70.61-25.67,40.16,0,83.71,20.09,116.5,53.73,22.11,22.69,47.62,64.54,46.72,107.82-.51,24.69-9.99,46.43-27.41,62.88-16.61,15.69-36.76,23.64-59.87,23.64ZM335.34,304.67c-12.76,0-22.75,3.95-30.54,12.07-3.6,3.76-7.72,14.44-8.24,29.01-.52,14.4,2.86,24.42,6.23,27.64l50.28,48.19c18.57,17.8,46.11,28.86,71.87,28.86h0c15.44,0,29.22-3.94,39.99-11.4,2.73-4.63,5.5-15.16,5.68-29.13.2-15.13-2.8-25.72-5.67-29.17-21.41-25.7-83.37-76.07-129.6-76.07Z"/>
      <path class="cls-1" d="M481.77,470.65c-50.2,47.4-123.86,3.99-166.09-29.36-47.34-37.39-79.56-109.93-27-154.51,53.19-45.11,128.68-18.55,173.48,27.42,36.5,37.45,67.09,111.62,19.61,156.45ZM346.15,428.81c33.48,32.09,91.13,43.12,126.06,17.32,10.58-14.05,11.68-58.26.41-71.78-30.74-36.9-129.78-111.72-175.04-64.52-13.2,13.77-15.61,57.48-1.72,70.79l50.28,48.19Z"/>
      <path class="cls-2" d="M398.25,440.93c-29.31,0-61.88-23.02-74.13-39.64-10.5-14.25-11.27-34.69-2.02-53.33,9.37-18.88,26.62-30.78,45.02-31.06h.43c19.88,0,52.08,21.16,63.26,34.88,8.25,10.13,12.5,29.52,10.33,47.15-1.86,15.1-7.99,26.93-17.73,34.22-6.91,5.17-15.38,7.79-25.16,7.79Z"/>
      <path class="cls-1" d="M417.42,425.13c-24.02,17.97-70.48-9.73-85.25-29.77-17.76-24.1,3.25-67.99,35.1-68.46,15.23-.23,45.16,18.16,55.79,31.2,10.7,13.13,14.2,52.2-5.64,67.04Z"/>
    </g>
  </g>
</svg>